<svg width="3833" height="1519" xmlns="http://www.w3.org/2000/svg" xmlns:xlink="http://www.w3.org/1999/xlink" overflow="hidden"><defs><clipPath id="clip0"><rect x="413" y="389" width="3833" height="1519"/></clipPath></defs><g clip-path="url(#clip0)" transform="translate(-413 -389)"><rect x="2768.5" y="1388.5" width="1459" height="507" stroke="#000000" stroke-width="6.875" stroke-miterlimit="8" fill="#D4E7FA"/><text font-family="Calibri,Calibri_MSFontService,sans-serif" font-weight="700" font-size="83" transform="matrix(1 0 0 1 3134.13 1481)">ROS Navigation Stack</text><rect x="1003.5" y="426.5" width="396" height="172" stroke="#CF9B7B" stroke-width="6.875" stroke-miterlimit="8" fill="#B84747"/><text fill="#FFFFFF" font-family="Calibri,Calibri_MSFontService,sans-serif" font-weight="700" font-size="83" transform="matrix(1 0 0 1 1083.71 506)">Reality<tspan font-weight="400" font-size="55" x="-31.8313" y="73">Input/Output</tspan></text><rect x="435" y="400" width="2290" height="1495" stroke="#000000" stroke-width="10.3125" stroke-miterlimit="8" fill="none"/><text font-family="Calibri,Calibri_MSFontService,sans-serif" font-weight="700" font-size="92" transform="matrix(1 0 0 1 468.225 503)">Hardware</text><rect x="2768.5" y="641.5" width="1459" height="657" stroke="#C9C9B6" stroke-width="6.875" stroke-miterlimit="8" fill="#FFFF99"/><text font-family="Calibri,Calibri_MSFontService,sans-serif" font-weight="700" font-size="92" transform="matrix(1 0 0 1 2794.16 744)">Controller Manager<tspan font-weight="400" font-size="73" x="0" y="93">Loads, unloads, and calls updates to controllers</tspan></text><rect x="2813.5" y="891.5" width="877" height="152" stroke="#000000" stroke-width="6.875" stroke-miterlimit="8" fill="#FFFF66"/><text font-family="Calibri,Calibri_MSFontService,sans-serif" font-weight="700" font-size="83" transform="matrix(1 0 0 1 2877.56 995)">joint_state_controller</text><rect x="2902.5" y="1121.5" width="113" height="50.9999" stroke="#2F528F" stroke-width="6.875" stroke-miterlimit="8" fill="#4472C4"/><rect x="3387.5" y="1121.5" width="113" height="50.9999" stroke="#2F528F" stroke-width="6.875" stroke-miterlimit="8" fill="#4472C4"/><rect x="2813.5" y="1090.5" width="877" height="152" stroke="#000000" stroke-width="6.875" stroke-miterlimit="8" fill="#FFFF66"/><text font-family="Calibri,Calibri_MSFontService,sans-serif" font-weight="700" font-size="83" transform="matrix(1 0 0 1 2897.33 1194)">diff_drive_controller</text><rect x="537.5" y="718.5" width="449" height="133" stroke="#9A9A9A" stroke-width="6.875" stroke-miterlimit="8" fill="#E6E6E6"/><text font-family="Calibri,Calibri_MSFontService,sans-serif" font-weight="700" font-size="64" transform="matrix(1 0 0 1 640.68 806)">Encoders</text><rect x="1507.5" y="641.5" width="602" height="144" stroke="#9A9A9A" stroke-width="6.875" stroke-miterlimit="8" fill="#E6E6E6"/><text font-family="Calibri,Calibri_MSFontService,sans-serif" font-weight="700" font-size="64" transform="matrix(1 0 0 1 1679.36 699)">Actuators<tspan font-weight="400" font-size="60" x="-112.544" y="73">Motors, Servos, etc.</tspan></text><rect x="1387.5" y="869.5" width="839" height="238" stroke="#9A9A9A" stroke-width="6.875" stroke-miterlimit="8" fill="#E6E6E6"/><text font-family="Calibri,Calibri_MSFontService,sans-serif" font-weight="700" font-size="73" transform="matrix(1 0 0 1 1467.38 936)">Embedded Controllers<tspan font-weight="400" font-size="64" x="8.29578" y="79">e.g., Teensy, operates PID </tspan><tspan font-weight="400" font-size="64" x="-45.3063" y="156">controllers to follow set point</tspan></text><path d="M0.476369-5.1342 7.0488-4.52438 13.9889-2.44951 20.6649 0.74942 27.2111 5.04535 33.5836 10.4116 39.7686 16.794 45.8889 24.0863 51.7719 32.2967 57.5402 41.3337 63.218 51.2859 68.7551 61.9781 74.0877 73.4685 79.2739 85.6752 84.3284 98.5641 89.1872 112.131 93.9157 126.38 98.3895 141.187 102.668 156.539 106.757 172.392 110.595 188.75 114.178 205.599 117.513 222.837 123.415 258.311 128.126 294.994 131.642 332.612 133.84 370.789 134.149 383.472 123.84 383.723 123.533 371.126 123.54 371.296 121.352 333.296 121.366 333.48 117.866 296.042 117.886 296.219 113.198 259.719 113.226 259.909 107.351 224.596 107.375 224.729 104.063 207.604 104.082 207.698 100.519 190.948 100.543 191.053 96.7301 174.803 96.7572 174.913 92.6947 159.163 92.7205 159.259 88.4705 144.009 88.5016 144.116 84.0641 129.429 84.1062 129.562 79.4187 115.437 79.4582 115.551 74.6457 102.114 74.6997 102.257 69.6997 89.5075 69.7543 89.6413 64.6293 77.5788 64.6979 77.7331 59.4479 66.4206 59.5463 66.6211 54.1088 56.1211 54.2089 56.3051 48.6464 46.5551 48.7787 46.7742 43.1537 37.9617 43.3086 38.1908 37.6212 30.2533 37.8629 30.5648 31.9879 23.5648 32.2347 23.8383 26.3597 17.7758 26.7412 18.1316 20.8037 13.1316 21.296 13.4984 15.296 9.56087 15.8969 9.89999 9.89688 7.02499 10.648 7.31519 4.58554 5.50269 5.58613 5.6967-0.476369 5.1342ZM144.372 378.176 129.438 409.375 113.439 378.708Z" transform="matrix(-1.83697e-16 -1 -1 1.83697e-16 1808.32 641.379)"/><path d="M0.141602-5.15431 11.6448-4.83828 23.2134-3.94347 34.716-2.4737 46.2181-0.428879 57.5833 2.18895 68.7944 5.31022 79.8773 8.87712 90.8481 12.9593 101.613 17.5456 112.107 22.5064 122.491 27.9211 132.547 33.7768 142.341 39.9458 151.877 46.5377 169.802 60.6622 178.382 68.218 186.481 76.1258 194.188 84.2149 201.467 92.5794 208.303 101.204 214.699 110.095 220.52 119.114 225.902 128.34 230.72 137.783 234.952 147.337 238.686 156.994 241.758 166.929 244.336 180.147 234.215 182.121 231.689 169.175 231.824 169.711 228.886 160.211 229.003 160.547 225.378 151.172 225.473 151.401 221.348 142.088 221.47 142.343 216.782 133.156 216.921 133.411 211.671 124.411 211.793 124.609 206.105 115.796 206.252 116.011 200.002 107.324 200.147 107.515 193.459 99.0778 193.61 99.2599 186.485 91.0724 186.642 91.2443 179.079 83.3068 179.21 83.4393 171.273 75.6893 171.467 75.8697 163.092 68.4947 163.309 68.675 145.621 54.7375 145.88 54.929 136.568 48.4915 136.752 48.6129 127.127 42.5504 127.28 42.6434 117.405 36.8934 117.616 37.0095 107.428 31.697 107.609 31.7866 97.2963 26.9116 97.479 26.9937 86.9165 22.4937 87.1393 22.5826 76.3893 18.5826 76.6078 18.6583 65.7328 15.1583 65.9296 15.2173 54.9295 12.1548 55.1551 12.2122 44.0301 9.64968 44.285 9.70165 33.035 7.70165 33.284 7.73967 22.034 6.30217 22.2899 6.32839 10.9774 5.45339 11.2334 5.46681-0.141602 5.15431ZM254.063 174.263 242.188 206.75 223.323 177.758Z" transform="matrix(-1 1.22465e-16 1.22465e-16 1 1003.14 512)"/><path d="M5.1548-0.122264 6.51359 57.166-3.79601 57.4105-5.1548 0.122264ZM16.7009 51.7667 1.97011 83.0623-14.2279 52.5003Z" transform="matrix(1 0 0 -1 1806 868.062)"/><text font-family="Calibri,Calibri_MSFontService,sans-serif" font-weight="700" font-size="64" transform="matrix(1 0 0 1 1833.92 1206)">subscribe<tspan font-weight="400" font-size="60" x="266.658" y="0">/</tspan><tspan font-weight="400" font-size="60" x="289.575" y="0">wheel_cmd_velocities</tspan><tspan font-weight="400" font-size="60" x="0" y="73">diffbot_msgs</tspan><tspan font-weight="400" font-size="60" x="316.823" y="73">/</tspan><tspan font-weight="400" font-size="60" x="339.74" y="73">WheelsCmd</tspan><tspan font-size="64" x="-1238.26" y="0">publish</tspan><tspan font-weight="400" font-size="60" x="-1028.57" y="0">/</tspan><tspan font-weight="400" font-size="60" x="-1005.66" y="0">measured_joint_states</tspan><tspan font-weight="400" font-size="60" x="-1238.26" y="73">sensor_msgs</tspan><tspan font-weight="400" font-size="60" x="-925.448" y="73">/</tspan><tspan font-weight="400" font-size="60" x="-903.609" y="73">JointState</tspan><tspan font-size="64" x="-1242.61" y="-290">Joint States</tspan><tspan font-weight="400" font-size="60" x="-1242.61" y="-217">angular positions / velocities</tspan><tspan font-size="64" x="11.2289" y="252">publish</tspan><tspan font-weight="400" font-size="60" x="220.916" y="252">/</tspan><tspan font-weight="400" font-size="60" x="243.833" y="252">wheel_cmd_velocities</tspan><tspan font-size="64" x="-1230.72" y="250">subscribe</tspan><tspan font-weight="400" font-size="60" x="-964.058" y="250">/</tspan><tspan font-weight="400" font-size="60" x="-941.141" y="250">measured_joint_states</tspan></text><rect x="537.5" y="1538.5" width="1519" height="286" stroke="#AE5A21" stroke-width="6.875" stroke-miterlimit="8" fill="#ED7D31"/><text font-family="Calibri,Calibri_MSFontService,sans-serif" font-weight="700" font-size="73" transform="matrix(1 0 0 1 825.304 1623)">hardware_interface<tspan font-size="73" x="604.427" y="0">::</tspan><tspan font-size="73" x="644.531" y="0">RobotHW</tspan><tspan font-weight="400" font-size="73" x="-241.771" y="88">Provides position, velocity, and effort interfaces</tspan><tspan font-weight="400" font-size="73" x="-57.5896" y="176">between</tspan><tspan font-weight="400" font-size="73" x="223.14" y="176">hardware</tspan><tspan font-weight="400" font-size="73" x="527.358" y="176">and </tspan><tspan font-weight="400" font-size="73" x="655.692" y="176">ros_control</tspan></text><rect x="537.5" y="1538.5" width="232" height="99" stroke="#AE5A21" stroke-width="6.875" stroke-miterlimit="8" fill="#E6E6E6"/><text font-family="Calibri,Calibri_MSFontService,sans-serif" font-weight="700" font-size="64" transform="matrix(1 0 0 1 572.454 1609)">read()</text><rect x="1784.5" y="1537.5" width="271" height="100" stroke="#AE5A21" stroke-width="6.875" stroke-miterlimit="8" fill="#E6E6E6"/><text font-family="Calibri,Calibri_MSFontService,sans-serif" font-weight="700" font-size="64" transform="matrix(1 0 0 1 1828.61 1609)">write()</text><rect x="514" y="1374" width="2164" height="478" stroke="#000000" stroke-width="10.3125" stroke-miterlimit="8" stroke-dasharray="41.25 30.9375" fill="none"/><text font-family="Calibri,Calibri_MSFontService,sans-serif" font-weight="700" font-size="92" transform="matrix(1 0 0 1 2271.34 1608)">High<tspan font-size="92" x="173.021" y="0">-</tspan><tspan font-size="92" x="201.094" y="0">level</tspan><tspan font-size="92" x="6.4165" y="110">Hardware</tspan><tspan font-size="92" x="40.5166" y="220">Interface</tspan></text><rect x="514" y="618" width="2164" height="700" stroke="#000000" stroke-width="10.3125" stroke-miterlimit="8" stroke-dasharray="41.25 30.9375" fill="none"/><text font-family="Calibri,Calibri_MSFontService,sans-serif" font-weight="700" font-size="92" transform="matrix(1 0 0 1 2288.14 720)">Low<tspan font-size="92" x="156.223" y="0">-</tspan><tspan font-size="92" x="184.296" y="0">level</tspan><tspan font-size="92" x="184.135" y="110">Base</tspan><tspan font-size="92" x="-18.4251" y="220">Controller</tspan></text><path d="M25.7812-5.15625 100.54-5.15625 100.54 746.631 90.2272 746.631 90.2272 0 95.3835 5.15625 25.7812 5.15625ZM30.9375 15.4688 0 0 30.9375-15.4688ZM110.852 741.475 95.3835 772.413 79.9147 741.475Z" transform="matrix(-1.83697e-16 -1 -1 1.83697e-16 3497.41 641.383)"/><text font-family="Calibri,Calibri_MSFontService,sans-serif" font-weight="700" font-size="73" transform="matrix(1 0 0 1 2797.54 509)">update joint interface values</text><rect x="3387.5" y="1552.5" width="803" height="302" stroke="#809090" stroke-width="6.875" stroke-miterlimit="8" fill="#47B8B8"/><text font-family="Calibri,Calibri_MSFontService,sans-serif" font-weight="700" font-size="83" transform="matrix(1 0 0 1 3556.84 1642)">ROS Interface<tspan font-weight="400" font-size="73" x="44.1147" y="91">/joint_states</tspan><tspan font-weight="400" font-size="73" x="-150.814" y="179">for </tspan><tspan font-weight="400" font-size="73" x="-48.6519" y="179">robot_state_publisher</tspan></text><rect x="2817.5" y="1552.5" width="519" height="299" stroke="#809090" stroke-width="6.875" stroke-miterlimit="8" fill="#47B8B8"/><text font-family="Calibri,Calibri_MSFontService,sans-serif" font-weight="700" font-size="83" transform="matrix(1 0 0 1 2844.33 1685)">ROS Interface<tspan font-weight="400" font-size="73" x="93.3167" y="91">/</tspan><tspan font-weight="400" font-size="73" x="120.06" y="91">cmd_vel</tspan></text><path d="M5.15625-5.96958e-06 5.15658 285.941-5.15592 285.941-5.15625 5.96958e-06ZM15.4691 280.785 0.000360892 311.722-15.4684 280.785Z" transform="matrix(1 0 0 -1 3076 1551.72)"/><path d="M5.15624-0.0121489 6.10418 402.318-4.20829 402.342-5.15624 0.0121489ZM16.4045 397.137 1.00869 428.111-14.5329 397.21Z" transform="matrix(1 0 0 -1 1803 1535.11)"/><path d="M573.156 850.991 574.287 1514.53 563.974 1514.55 562.844 851.009ZM584.59 1509.36 569.174 1540.32 553.653 1509.41Z"/><path d="M3690.1 961.845 3699.86 962.035 3709.76 962.738 3719.6 963.76 3729.44 965.293 3739.19 967.142 3749.04 969.444 3758.72 972.183 3768.5 975.249 3787.68 982.49 3806.74 991.26 3825.52 1001.41 3844.03 1012.88 3862.21 1025.67 3879.98 1039.65 3897.42 1054.82 3914.41 1071.18 3930.88 1088.53 3946.9 1106.95 3962.34 1126.24 3977.22 1146.53 3991.51 1167.63 4005.12 1189.55 4018.03 1212.22 4030.24 1235.57 4041.7 1259.62 4052.33 1284.23 4062.15 1309.34 4071.09 1334.95 4079.14 1361.01 4086.19 1387.45 4092.3 1414.2 4097.34 1441.21 4101.37 1468.48 4104.27 1495.89 4105.93 1524.93 4095.63 1525.52 4093.98 1496.61 4094 1496.85 4091.12 1469.67 4091.15 1469.88 4087.15 1442.82 4087.18 1443.01 4082.18 1416.2 4082.22 1416.4 4076.16 1389.83 4076.21 1390.02 4069.21 1363.77 4069.26 1363.96 4061.26 1338.09 4061.32 1338.26 4052.44 1312.82 4052.51 1313 4042.76 1288.06 4042.83 1288.23 4032.27 1263.8 4032.35 1263.97 4020.97 1240.09 4021.06 1240.26 4008.93 1217.08 4009.02 1217.24 3996.21 1194.74 3996.31 1194.91 3982.81 1173.16 3982.92 1173.33 3968.73 1152.39 3968.84 1152.55 3954.09 1132.42 3954.23 1132.6 3938.91 1113.47 3939.05 1113.63 3923.17 1095.38 3923.32 1095.55 3907.01 1078.36 3907.17 1078.53 3890.36 1062.34 3890.55 1062.52 3873.3 1047.52 3873.5 1047.68 3855.94 1033.87 3856.16 1034.03 3838.22 1021.4 3838.47 1021.57 3820.22 1010.26 3820.49 1010.41 3801.99 1000.41 3802.28 1000.56 3783.53 991.934 3783.87 992.074 3764.99 984.949 3765.27 985.045 3755.71 982.045 3755.85 982.086 3746.35 979.399 3746.58 979.458 3736.95 977.208 3737.17 977.253 3727.6 975.441 3727.77 975.47 3718.14 973.97 3718.4 974.004 3708.78 973.004 3708.95 973.018 3699.26 972.331 3699.52 972.343 3689.9 972.155ZM4116.11 1519.68 4101.44 1551 4085.18 1520.47Z"/></g></svg>