<svg width="1280" height="720" xmlns="http://www.w3.org/2000/svg" xmlns:xlink="http://www.w3.org/1999/xlink" overflow="hidden"><defs><clipPath id="clip0"><rect x="0" y="0" width="1280" height="720"/></clipPath></defs><g clip-path="url(#clip0)"><rect x="0" y="0" width="1280" height="720" fill="#FFFFFF"/><rect x="805" y="404" width="425" height="147" stroke="#000000" stroke-width="2" stroke-miterlimit="8" fill="#D4E7FA"/><text font-family="Calibri,Calibri_MSFontService,sans-serif" font-weight="700" font-size="24" transform="translate(911.747 430)">ROS Navigation Stack</text><rect x="292" y="124" width="115" height="50" stroke="#CF9B7B" stroke-width="2" stroke-miterlimit="8" fill="#B84747"/><text fill="#FFFFFF" font-family="Calibri,Calibri_MSFontService,sans-serif" font-weight="700" font-size="24" transform="translate(315.26 147)">Reality<tspan font-weight="400" font-size="16" x="-9.26001" y="22">Input/Output</tspan></text><rect x="127.5" y="116.5" width="666" height="435" stroke="#000000" stroke-width="3" stroke-miterlimit="8" fill="none"/><text font-family="Calibri,Calibri_MSFontService,sans-serif" font-weight="700" font-size="27" transform="translate(136.211 146)">Hardware</text><rect x="805" y="186" width="425" height="192" stroke="#C9C9B6" stroke-width="2" stroke-miterlimit="8" fill="#FFFF99"/><text font-family="Calibri,Calibri_MSFontService,sans-serif" font-weight="700" font-size="27" transform="translate(812.847 216)">Controller Manager<tspan font-weight="400" font-size="21" x="0" y="27">Loads, unloads, and calls updates to controllers</tspan></text><rect x="818" y="259" width="255" height="44" stroke="#000000" stroke-width="2" stroke-miterlimit="8" fill="#FFFF66"/><text font-family="Calibri,Calibri_MSFontService,sans-serif" font-weight="700" font-size="24" transform="translate(838.042 289)">joint_state_controller</text><rect x="844" y="326" width="33" height="15" stroke="#2F528F" stroke-width="2" stroke-miterlimit="8" fill="#4472C4"/><rect x="985" y="326" width="33" height="15" stroke="#2F528F" stroke-width="2" stroke-miterlimit="8" fill="#4472C4"/><rect x="818" y="317" width="255" height="44" stroke="#000000" stroke-width="2" stroke-miterlimit="8" fill="#FFFF66"/><text font-family="Calibri,Calibri_MSFontService,sans-serif" font-weight="700" font-size="24" transform="translate(843.286 347)">diff_drive_controller</text><rect x="434" y="603" width="1" height="25" fill="#FFFF99"/><rect x="156" y="209" width="131" height="38" stroke="#9A9A9A" stroke-width="2" stroke-miterlimit="8" fill="#E6E6E6"/><text font-family="Calibri,Calibri_MSFontService,sans-serif" font-weight="700" font-size="19" transform="translate(186.38 234)">Encoders</text><rect x="439" y="186" width="175" height="43" stroke="#9A9A9A" stroke-width="2" stroke-miterlimit="8" fill="#E6E6E6"/><text font-family="Calibri,Calibri_MSFontService,sans-serif" font-weight="700" font-size="19" transform="translate(488.54 203)">Actuators<tspan font-weight="400" font-size="17" x="-32.74" y="22">Motors, Servos, etc.</tspan></text><rect x="403" y="253" width="245" height="69" stroke="#9A9A9A" stroke-width="2" stroke-miterlimit="8" fill="#E6E6E6"/><text font-family="Calibri,Calibri_MSFontService,sans-serif" font-weight="700" font-size="21" transform="translate(426.874 272)">Embedded Controllers<tspan font-weight="400" font-size="19" x="2.41333" y="23">e.g., Teensy, operates PID </tspan><tspan font-weight="400" font-size="19" x="-13.18" y="45">controllers to follow set point</tspan></text><path d="M0.284229-1.47283 4.09085-0.738215 7.95618 1.47055 11.6114 4.85997 15.1146 9.40111 18.4428 14.9054 21.6193 21.3854 24.5928 28.6612 27.3689 36.8002 29.8866 45.5492 32.2137 54.9202 34.2256 64.8542 35.9218 75.1568 37.3037 85.835 38.3083 96.76 38.9994 107.944 39.0443 111.558 36.0445 111.596 36.0001 108.019 36.0029 108.093 35.3154 96.9675 35.3188 97.0123 34.3188 86.1373 34.3249 86.1925 32.9499 75.5675 32.9574 75.6187 31.2699 65.3687 31.2798 65.4227 29.2798 55.5477 29.2942 55.6115 26.9817 46.299 26.996 46.3523 24.496 37.6648 24.5178 37.7342 21.7678 29.6717 21.799 29.755 18.8615 22.5675 18.9031 22.6602 15.7781 16.2852 15.8414 16.4011 12.5914 11.0261 12.6873 11.1662 9.31233 6.7912 9.48009 6.9749 6.04259 3.7874 6.31829 3.98986 2.81829 1.98986 3.27827 2.16033-0.284229 1.47283ZM42.0254 110.021 37.6375 119.076 33.0261 110.133Z" transform="matrix(-1.83697e-16 -1 -1 1.83697e-16 526.576 187.138)"/><path d="M0.08477-1.4976 6.78179-1.11853 13.4216-0.0970203 20.0556 1.56148 26.4249 3.79075 32.6689 6.53047 38.5923 9.84246 44.1891 13.5313 49.4802 17.6749 54.2563 22.1963 58.6548 26.9773 62.4917 32.0931 65.7572 37.4076 68.3883 42.9264 70.3939 48.6197 71.0552 52.4228 68.0996 52.9368 67.4597 49.257 67.5227 49.4984 65.5852 43.9984 65.646 44.1455 63.0835 38.7705 63.1595 38.9103 59.972 33.7228 60.05 33.8375 56.3 28.8375 56.3961 28.9531 52.0836 24.2656 52.1563 24.3393 47.4688 19.9018 47.5752 19.9935 42.3877 15.931 42.487 16.0024 36.987 12.3774 37.0805 12.4342 31.268 9.18424 31.3973 9.24859 25.2723 6.56109 25.3795 6.60329 19.1295 4.41579 19.2612 4.45521 12.7612 2.83021 12.8969 2.85756 6.39691 1.85756 6.54023 1.8726-0.08477 1.4976ZM73.8751 50.6724 70.4397 60.1301 64.9348 51.7071Z" transform="matrix(-1 1.22465e-16 1.22465e-16 1 291.94 149.5)"/><path d="M1.49958-0.0355677 1.89486 16.6301-1.10429 16.7012-1.49958 0.0355677ZM4.85845 15.0594 0.573123 24.1636-4.13902 15.2728Z" transform="matrix(1 0 0 -1 525.5 253.664)"/><text font-family="Calibri,Calibri_MSFontService,sans-serif" font-weight="700" font-size="19" transform="translate(533.505 350)">subscribe<tspan font-weight="400" font-size="17" x="77.5733" y="0">/</tspan><tspan font-weight="400" font-size="17" x="84.24" y="0">wheel_cmd_velocities</tspan><tspan font-weight="400" font-size="17" x="0" y="22">diffbot_msgs</tspan><tspan font-weight="400" font-size="17" x="92.1666" y="22">/</tspan><tspan font-weight="400" font-size="17" x="98.8333" y="22">WheelsCmd</tspan><tspan font-size="19" x="-360.221" y="0">publish</tspan><tspan font-weight="400" font-size="17" x="-299.221" y="0">/</tspan><tspan font-weight="400" font-size="17" x="-292.555" y="0">measured_joint_states</tspan><tspan font-weight="400" font-size="17" x="-360.221" y="22">sensor_msgs</tspan><tspan font-weight="400" font-size="17" x="-269.221" y="22">/</tspan><tspan font-weight="400" font-size="17" x="-262.868" y="22">JointState</tspan><tspan font-size="19" x="-361.488" y="-84">Joint States</tspan><tspan font-weight="400" font-size="17" x="-361.488" y="-62">angular positions / velocities</tspan><tspan font-size="19" x="3.26654" y="74">publish</tspan><tspan font-weight="400" font-size="17" x="64.2665" y="74">/</tspan><tspan font-weight="400" font-size="17" x="70.9332" y="74">wheel_cmd_velocities</tspan><tspan font-size="19" x="-358.027" y="73">subscribe</tspan><tspan font-weight="400" font-size="17" x="-280.453" y="73">/</tspan><tspan font-weight="400" font-size="17" x="-273.787" y="73">measured_joint_states</tspan></text><rect x="156" y="447" width="442" height="84" stroke="#AE5A21" stroke-width="2" stroke-miterlimit="8" fill="#ED7D31"/><text font-family="Calibri,Calibri_MSFontService,sans-serif" font-weight="700" font-size="21" transform="translate(241.042 472)">hardware_interface<tspan font-size="21" x="174.3" y="0">::</tspan><tspan font-size="21" x="185.967" y="0">RobotHW</tspan><tspan font-weight="400" font-size="21" x="-69.36" y="26">Provides position, velocity, and effort interfaces</tspan><tspan font-weight="400" font-size="21" x="-16.6133" y="51">between</tspan><tspan font-weight="400" font-size="21" x="64.7533" y="51">hardware</tspan><tspan font-weight="400" font-size="21" x="152.44" y="51">and </tspan><tspan font-weight="400" font-size="21" x="189.773" y="51">ros_control</tspan></text><rect x="156" y="447" width="68" height="29" stroke="#AE5A21" stroke-width="2" stroke-miterlimit="8" fill="#E6E6E6"/><text font-family="Calibri,Calibri_MSFontService,sans-serif" font-weight="700" font-size="19" transform="translate(166.635 468)">read()</text><rect x="519" y="447" width="79" height="29" stroke="#AE5A21" stroke-width="2" stroke-miterlimit="8" fill="#E6E6E6"/><text font-family="Calibri,Calibri_MSFontService,sans-serif" font-weight="700" font-size="19" transform="translate(532.074 467)">write()</text><rect x="150.5" y="400.5" width="629" height="139" stroke="#000000" stroke-width="3" stroke-miterlimit="8" stroke-dasharray="12 9" fill="none"/><text font-family="Calibri,Calibri_MSFontService,sans-serif" font-weight="700" font-size="27" transform="translate(660.753 468)">High<tspan font-size="27" x="50.3334" y="0">-</tspan><tspan font-size="27" x="58.5" y="0">level</tspan><tspan font-size="27" x="1.8667" y="32">Hardware</tspan><tspan font-size="27" x="11.7867" y="64">Interface</tspan></text><rect x="150.5" y="180.5" width="629" height="204" stroke="#000000" stroke-width="3" stroke-miterlimit="8" stroke-dasharray="12 9" fill="none"/><text font-family="Calibri,Calibri_MSFontService,sans-serif" font-weight="700" font-size="27" transform="translate(665.64 210)">Low<tspan font-size="27" x="45.4467" y="0">-</tspan><tspan font-size="27" x="53.6133" y="0">level</tspan><tspan font-size="27" x="53.5667" y="32">Base</tspan><tspan font-size="27" x="-5.35999" y="64">Controller</tspan></text><path d="M7.5-1.5 29.2479-1.5 29.2479 217.202 26.2479 217.202 26.2479 0 27.7479 1.5 7.5 1.5ZM9 4.5 0 0 9-4.5ZM32.2479 215.702 27.7479 224.702 23.2479 215.702Z" transform="matrix(-1.83697e-16 -1 -1 1.83697e-16 1018.2 187.248)"/><text font-family="Calibri,Calibri_MSFontService,sans-serif" font-weight="700" font-size="21" transform="translate(813.829 148)">update joint interface values</text><rect x="985" y="451" width="234" height="88" stroke="#809090" stroke-width="2" stroke-miterlimit="8" fill="#47B8B8"/><text font-family="Calibri,Calibri_MSFontService,sans-serif" font-weight="700" font-size="24" transform="translate(1034.72 477)">ROS Interface<tspan font-weight="400" font-size="21" x="12.8333" y="27">/joint_states</tspan><tspan font-weight="400" font-size="21" x="-43.8734" y="52">for </tspan><tspan font-weight="400" font-size="21" x="-14.1534" y="52">robot_state_publisher</tspan></text><rect x="819" y="451" width="151" height="88" stroke="#809090" stroke-width="2" stroke-miterlimit="8" fill="#47B8B8"/><text font-family="Calibri,Calibri_MSFontService,sans-serif" font-weight="700" font-size="24" transform="translate(827.44 490)">ROS Interface<tspan font-weight="400" font-size="21" x="27.1467" y="27">/</tspan><tspan font-weight="400" font-size="21" x="34.9267" y="27">cmd_vel</tspan></text><path d="M1.5-1.73661e-06 1.5001 83.1828-1.4999 83.1828-1.5 1.73661e-06ZM4.50009 81.6828 0.000104987 90.6828-4.49991 81.6828Z" transform="matrix(1 0 0 -1 895.5 452.183)"/><path d="M1.5-0.00353422 1.77576 117.038-1.22423 117.045-1.5 0.00353422ZM4.77222 115.531 0.293438 124.541-4.22775 115.552Z" transform="matrix(1 0 0 -1 525.5 447.041)"/><path d="M167 247.497 167.329 440.528 164.329 440.533 164 247.503ZM170.326 439.022 165.842 448.03 161.326 439.038Z"/><path d="M1073.57 280.002 1079.26 280.254 1085.01 281.021 1090.68 282.232 1096.35 283.888 1101.95 285.99 1107.49 288.534 1112.94 291.517 1118.34 294.884 1128.83 302.654 1138.81 311.816 1148.28 322.226 1157.1 333.76 1165.23 346.294 1172.53 359.642 1178.95 373.804 1184.43 388.593 1188.83 403.825 1192.11 419.502 1194.12 435.375 1194.46 443.831 1191.46 443.952 1191.13 435.56 1191.14 435.689 1189.14 419.939 1189.16 420.057 1185.91 404.494 1185.93 404.604 1181.56 389.479 1181.59 389.583 1176.16 374.896 1176.2 374.994 1169.82 360.932 1169.87 361.033 1162.62 347.783 1162.68 347.878 1154.62 335.441 1154.68 335.536 1145.93 324.099 1146.02 324.197 1136.64 313.884 1136.74 313.98 1126.86 304.918 1126.98 305.018 1116.61 297.33 1116.71 297.398 1111.39 294.085 1111.47 294.129 1106.09 291.191 1106.19 291.238 1100.75 288.738 1100.85 288.78 1095.35 286.717 1095.45 286.752 1089.89 285.127 1090 285.155 1084.44 283.967 1084.55 283.987 1078.93 283.237 1079.06 283.249 1073.43 282.999ZM1197.4 442.212 1193.26 451.385 1188.41 442.573Z"/></g></svg>