<svg width="3455" height="1037" xmlns="http://www.w3.org/2000/svg" xmlns:xlink="http://www.w3.org/1999/xlink" overflow="hidden"><defs><clipPath id="clip0"><rect x="694" y="584" width="3455" height="1037"/></clipPath></defs><g clip-path="url(#clip0)" transform="translate(-694 -584)"><rect x="1749.5" y="982.5" width="886" height="260" stroke="#000000" stroke-width="4.58333" stroke-miterlimit="8"/><text fill="#FFFFFF" font-family="Calibri,Calibri_MSFontService,sans-serif" font-weight="700" font-size="83" transform="matrix(1 0 0 1 1815.87 1098)">Microcontroller board<tspan font-weight="400" font-size="69" x="281.737" y="86">Teensy</tspan></text><rect x="2868.5" y="983.5" width="886" height="260" stroke="#000000" stroke-width="4.58333" stroke-miterlimit="8"/><text fill="#FFFFFF" font-family="Calibri,Calibri_MSFontService,sans-serif" font-weight="700" font-size="83" transform="matrix(1 0 0 1 2917.78 1099)">Single Board Computer<tspan font-weight="400" font-size="69" x="174.144" y="86">Raspberry Pi 4B</tspan></text><rect x="2869.5" y="586.5" width="886" height="261" stroke="#000000" stroke-width="4.58333" stroke-miterlimit="8"/><text fill="#FFFFFF" font-family="Calibri,Calibri_MSFontService,sans-serif" font-weight="700" font-size="83" transform="matrix(1 0 0 1 3077.27 703)">Laser Scanner<tspan font-weight="400" font-size="69" x="30.1123" y="86">RPLidar</tspan><tspan font-weight="400" font-size="69" x="255.842" y="86">A2 M8</tspan></text><path d="M3.43728-0.0392229 4.72871 113.135-2.14584 113.213-3.43728 0.0392229ZM14.9882 108.434 1.55292 136.089-12.51 108.748Z" transform="matrix(-1 0 0 1 3313.05 847.5)"/><rect x="3964.5" y="668.5" width="182" height="888" stroke="#000000" stroke-width="4.58333" stroke-miterlimit="8"/><text fill="#FFFFFF" font-family="Calibri,Calibri_MSFontService,sans-serif" font-weight="700" font-size="83" transform="matrix(6.12323e-17 1 -1 6.12323e-17 4027.67 715)">Wi<tspan font-size="83" x="95" y="5.81707e-15">-</tspan><tspan font-size="83" x="120" y="7.34788e-15">Fi Dongle (optional) </tspan></text><path d="M22.9367-3.30063 187.542-2.31798 187.501 4.5569 22.8956 3.57424ZM27.4174 13.9139 0 0 27.5816-13.5856ZM183.02-12.6577 210.438 1.25627 182.856 14.8419Z" transform="matrix(-1 0 0 1 3964.94 1112.5)"/><text font-family="Calibri,Calibri_MSFontService,sans-serif" font-weight="400" font-size="83" transform="matrix(1 0 0 1 2214.6 1350)">I2C<tspan font-size="83" x="1579.22" y="-284">USB</tspan></text><rect x="696.5" y="982.5" width="886" height="260" stroke="#000000" stroke-width="4.58333" stroke-miterlimit="8"/><text fill="#FFFFFF" font-family="Calibri,Calibri_MSFontService,sans-serif" font-weight="700" font-size="83" transform="matrix(1 0 0 1 915.448 1098)">Motor Driver<tspan font-weight="400" font-size="69" x="-78.5354" y="86">Adafruit </tspan><tspan font-weight="400" font-size="69" x="165.115" y="86">FeatherWing</tspan></text><rect x="741.5" y="693.5" width="796" height="182" stroke="#000000" stroke-width="4.58333" stroke-miterlimit="8"/><text fill="#FFFFFF" font-family="Calibri,Calibri_MSFontService,sans-serif" font-weight="700" font-size="83" transform="matrix(1 0 0 1 777.204 811)">Motor Left + Encoder</text><rect x="715.5" y="1357.5" width="845" height="183" stroke="#000000" stroke-width="4.58333" stroke-miterlimit="8"/><text fill="#FFFFFF" font-family="Calibri,Calibri_MSFontService,sans-serif" font-weight="700" font-size="83" transform="matrix(1 0 0 1 752.893 1476)">Motor Right + Encoder</text><path d="M1539.81 781.95 1733.35 956.892 1728.74 961.992 1535.2 787.05ZM1736.86 946.168 1748.05 974.809 1718.42 966.569Z"/><path d="M3.43739-0.0269092 4.15915 92.1703-2.71564 92.2241-3.43739 0.0269092ZM14.4355 87.5063 0.901148 115.113-13.0637 87.7216Z" transform="matrix(-1 0 0 1 1139.4 1242.5)"/><path d="M2.49492-2.36469 172.645 177.156 167.655 181.885-2.49492 2.36469ZM176.977 166.735 185.915 196.153 157.018 185.653Z" transform="matrix(1 0 0 -1 1560.5 1448.65)"/><path d="M3.4375-1.16323e-05 3.43778 83.7317-3.43722 83.7317-3.4375 1.16323e-05ZM13.7503 79.1483 0.000360892 106.648-13.7497 79.1484Z" transform="matrix(1 0 0 -1 1139.5 982.148)"/><path d="M7.409e-06-3.4375 144.524-3.43719 144.524 3.43781-7.409e-06 3.4375ZM139.941-13.7497 167.441 0.000360892 139.941 13.7503Z" transform="matrix(-1 0 0 1 1749.94 1112.5)"/><text font-family="Calibri,Calibri_MSFontService,sans-serif" font-weight="400" font-size="83" transform="matrix(1 0 0 1 3343.66 940)">Serial/USB</text><rect x="1794.5" y="1404.5" width="796" height="182" stroke="#000000" stroke-width="4.58333" stroke-miterlimit="8"/><text fill="#FFFFFF" font-family="Calibri,Calibri_MSFontService,sans-serif" font-weight="700" font-size="83" transform="matrix(1 0 0 1 1939.98 1522)">IMU (optional)</text><path d="M3.4375-7.67508e-06 3.43781 138.719-3.43719 138.719-3.4375 7.67508e-06ZM13.7503 134.136 0.000360892 161.636-13.7497 134.136Z" transform="matrix(1 0 0 -1 2192.5 1404.14)"/><text font-family="Calibri,Calibri_MSFontService,sans-serif" font-weight="400" font-size="83" transform="matrix(1 0 0 1 1605.99 1083)">I2C<tspan font-size="83" x="1081.19" y="0">USB</tspan></text><path d="M2845.53 1117.07 2658.4 1116.06 2658.43 1109.19 2845.57 1110.2ZM2841.04 1099.86 2868.47 1113.76 2840.89 1127.36ZM2662.93 1126.4 2635.5 1112.5 2663.07 1098.9Z"/><rect x="2913.5" y="1363.5" width="796" height="251" stroke="#000000" stroke-width="4.58333" stroke-miterlimit="8"/><text fill="#FFFFFF" font-family="Calibri,Calibri_MSFontService,sans-serif" font-weight="700" font-size="83" transform="matrix(1 0 0 1 3180.36 1475)">Camera<tspan font-weight="400" font-size="69" x="-99.5957" y="86">Raspi</tspan><tspan font-weight="400" font-size="69" x="64.8313" y="86">Camera v2</tspan><tspan fill="#000000" font-weight="400" font-size="83" x="158.109" y="-129">CSI</tspan></text><path d="M3.4375-1.03499e-05 3.43779 96.9462-3.43721 96.9462-3.4375 1.03499e-05ZM13.7503 92.3628 0.000360892 119.863-13.7497 92.3629Z" transform="matrix(1 0 0 -1 3311.5 1363.36)"/></g></svg>